<?xml version="1.0" encoding="UTF-8" standalone="yes"?>
<!DOCTYPE svg PUBLIC "-//W3C//DTD SVG 1.1//EN" "http://www.w3.org/Graphics/SVG/1.1/DTD/svg11.dtd">

<svg viewBox="0 0 375 375" xmlns="http://www.w3.org/2000/svg" xmlns:xlink="http://www.w3.org/1999/xlink" version="1.1" baseProfile="full">
  <g>
    <path d="M 232.932449 189.499989 L 366.868029 323.470652 C 379.043990 335.649803 379.043990 355.686472 366.868029 367.865625 C 354.692067 380.044777 334.660645 380.044777 322.484681 367.865625 L 188.549091 233.894973 L 54.613512 367.865636 C 42.437550 380.044788 22.406128 380.044788 10.230165 367.865636 C 4.142184 361.776061 1.000000 353.722106 1.000000 345.668150 C 1.000000 337.614195 4.142184 329.560240 10.230165 323.470663 L 144.165744 189.500000 L 10.230165 55.529337 C 4.142184 49.439761 1.000000 41.385806 1.000000 33.331850 C 1.000000 25.277895 4.142184 17.223940 10.230165 11.134364 C 22.406127 -1.044788 42.437548 -1.044788 54.613512 11.134364 L 188.549091 145.105027 L 322.484670 11.134364 C 334.660632 -1.044788 354.692054 -1.044788 366.868017 11.134364 C 379.043979 23.313515 379.043979 43.350184 366.868017 55.529337 L 232.932449 189.499989 Z"></path>
  </g>
</svg>
