<svg xmlns="http://www.w3.org/2000/svg" viewBox="0 0 375 375">
    <g transform="scale(1,-1) translate(0,-375)">
        <path stroke="#555" stroke-width="20" fill="#e7dad5" opactiy="0.9" d="M 361.770088 229.071425 L 238.639503 229.071425 L 201.223224 340.734372 C 199.381696 346.175220 194.275664 349.607139 188.499999 349.607139 C 182.724335 349.607139 177.618303 346.175219 175.776785 340.734370 L 138.360496 229.071425 L 14.392857 229.071425 C 7.026786 229.071425 1.000000 223.044639 1.000000 215.678568 C 1.000000 214.925219 1.083705 214.088166 1.251116 213.418523 C 1.418527 210.488835 2.757812 207.224326 6.859375 203.959817 L 108.059153 132.642856 L 69.219866 19.724335 C 67.294643 14.283486 69.219866 8.172995 73.823660 4.657370 C 76.251116 2.899558 78.511160 1.392861 81.357142 1.392861 C 84.119419 1.392861 87.383928 2.815852 89.727678 4.406254 L 188.499999 74.802458 L 287.272320 4.406254 C 289.616070 2.732147 292.880579 1.392861 295.642856 1.392861 C 298.488838 1.392861 300.748883 2.815852 303.092632 4.657370 C 307.780132 8.172995 309.621650 14.199781 307.696427 19.724335 L 268.857142 132.642843 L 369.219866 204.629450 L 371.647322 206.722084 C 373.823661 209.065834 376.000000 212.246638 376.000000 215.678557 C 376.000000 223.044629 369.136161 229.071414 361.770089 229.071414 Z" transform="scale(1.000000,1.000000) translate(-1.000000,12.000000)" opacity="1.000000"></path>
    </g>
</svg>
