<svg xmlns="http://www.w3.org/2000/svg" viewBox="0 0 375 375">
    <g transform="scale(1,-1) translate(0,-375)">
        <!-- <path d="M 188.500000 350.759615 C 231.859374 350.759615 272.604570 333.902644 303.253609 303.253605 C 333.902647 272.604567 350.759615 231.859381 350.759615 188.500000 C 350.759615 145.140619 333.902644 104.395430 303.253605 73.746391 C 272.604567 43.097353 231.859381 26.240385 188.500000 26.240385 C 145.140626 26.240385 104.395430 43.097356 73.746391 73.746395 C 43.097353 104.395433 26.240385 145.140619 26.240385 188.500000 C 26.240385 231.859381 43.097356 272.604570 73.746395 303.253609 C 104.395433 333.902647 145.140619 350.759615 188.500000 350.759615 M 188.500000 376.000000 C 84.924284 376.000000 1.000000 292.075716 1.000000 188.500000 C 1.000000 84.924284 84.924277 1.000000 188.500000 1.000000 C 292.075723 1.000000 376.000000 84.924277 376.000000 188.500000 C 376.000000 292.075723 292.075716 376.000000 188.500000 376.000000 Z" transform="scale(1.000000,1.000000) translate(-1.000000,-1.000000)" opacity="1.000000"></path> -->
        <path d="M 163.500000 325.759615 C 206.859373 325.759615 247.604568 308.902644 278.253606 278.253606 C 308.902644 247.604568 325.759612 206.859383 325.759612 163.500003 C 325.759612 120.140624 308.902641 79.395435 278.253603 48.746397 C 247.604565 18.097359 206.859380 1.240391 163.500000 1.240391 C 120.140627 1.240391 79.395432 18.097363 48.746394 48.746401 C 18.097356 79.395438 1.240388 120.140624 1.240388 163.500003 C 1.240388 206.859383 18.097359 247.604572 48.746397 278.253609 C 79.395435 308.902647 120.140620 325.759615 163.500000 325.759615 Z" transform="scale(1.000000,1.000000) translate(24.000000,24.000000)" fill="#e7dad5" opacity="0.9"></path>
    </g>
</svg>
