<?xml version="1.0" encoding="UTF-8" standalone="yes"?>
<!DOCTYPE svg PUBLIC "-//W3C//DTD SVG 1.1//EN" "http://www.w3.org/Graphics/SVG/1.1/DTD/svg11.dtd">

<svg width="500" height="500" viewBox="0 0 500 500" xmlns="http://www.w3.org/2000/svg" xmlns:xlink="http://www.w3.org/1999/xlink" version="1.1" baseProfile="full">
    <g transform="scale(1,-1) translate(0,-500)">
        <path d="M 189.000000 376.500000 C 85.424284 376.500000 1.500000 292.575716 1.500000 189.000000 C 1.500000 85.424284 85.424277 1.500000 189.000000 1.500000 C 292.575723 1.500000 376.500000 85.424277 376.500000 189.000000 C 376.500000 292.575723 292.575716 376.500000 189.000000 376.500000 Z M 285.003606 240.832933 L 164.480772 119.769242 L 164.390628 119.769242 C 162.858176 118.236790 158.711541 114.811309 153.933897 114.811309 C 150.508416 114.811309 146.632214 116.704338 143.387022 119.949530 L 92.906253 170.430299 C 91.463945 171.872607 91.463945 174.126213 92.906253 175.568520 L 108.951925 191.614193 C 109.673079 192.335347 110.574521 192.695923 111.475963 192.695923 C 112.377406 192.695923 113.278848 192.335347 114.000002 191.614193 L 154.024042 151.590153 L 264.000003 262.377414 C 264.721157 263.098568 265.622599 263.459145 266.524042 263.459145 C 267.515628 263.459145 268.417070 263.098568 269.048080 262.377414 L 284.823320 246.061308 C 286.445917 244.528856 286.445917 242.275250 285.003609 240.832942 Z" transform="scale(1.000000,1.000000) translate(61.000000,61.000000)" fill="#0160c7" opacity="0.900000"></path>
        <path d="M 195.003600 127.832932 L 74.480769 6.769243 L 74.390624 6.769243 C 72.858173 5.236791 68.711538 1.811311 63.933894 1.811311 C 60.508413 1.811311 56.632211 3.704339 53.387019 6.949531 L 2.906251 57.430300 C 1.463943 58.872607 1.463943 61.126213 2.906251 62.568521 L 18.951923 78.614193 C 19.673077 79.335346 20.574519 79.695923 21.475961 79.695923 C 22.377403 79.695923 23.278846 79.335346 24.000000 78.614193 L 64.024039 38.590154 L 173.999998 149.377412 C 174.721152 150.098566 175.622594 150.459143 176.524036 150.459143 C 177.515623 150.459143 178.417065 150.098566 179.048075 149.377412 L 194.823315 133.061307 C 196.445911 131.528855 196.445911 129.275249 195.003603 127.832941 Z" transform="scale(1.000000,1.000000) translate(151.000000,174.000000)" fill="#fff" opacity="0.900000"></path>
    </g>
</svg>
