<?xml version="1.0" encoding="UTF-8" standalone="yes"?>
<!DOCTYPE svg PUBLIC "-//W3C//DTD SVG 1.1//EN" "http://www.w3.org/Graphics/SVG/1.1/DTD/svg11.dtd">

<svg width="375" height="175" viewBox="0 0 375 175" xmlns="http://www.w3.org/2000/svg" xmlns:xlink="http://www.w3.org/1999/xlink" version="1.1" baseProfile="full">
    <g transform="scale(1,-1) translate(0,-175)">
        <path d="M 290.010817 174.755635 L 88.989183 174.755635 C 40.942305 174.755635 2.000000 135.813316 2.000000 87.766452 C 2.000000 39.719588 40.942305 1.678712 88.989183 1.678712 L 290.010817 1.678712 C 338.057692 1.678712 377.000000 39.719578 377.000000 87.766452 C 377.000000 135.813327 338.057681 174.755635 290.010817 174.755635 Z M 88.538462 30.524866 C 56.717549 30.524866 30.846154 56.396261 30.846154 88.217173 C 30.846154 120.038086 56.717549 145.909481 88.538462 145.909481 C 120.359374 145.909481 146.230769 120.038086 146.230769 88.217173 C 146.230769 56.396261 120.359374 30.524866 88.538462 30.524866 Z" transform="scale(1.000000,1.000000) translate(-2.000000,-1.000000)" opacity="1.000000"></path>
    </g>
</svg>