<?xml version="1.0" encoding="UTF-8" standalone="yes"?>
<!DOCTYPE svg PUBLIC "-//W3C//DTD SVG 1.1//EN" "http://www.w3.org/Graphics/SVG/1.1/DTD/svg11.dtd">

<svg width="375" height="175" viewBox="0 0 375 175" xmlns="http://www.w3.org/2000/svg" xmlns:xlink="http://www.w3.org/1999/xlink" version="1.1" baseProfile="full">
    <g transform="scale(1,-1) translate(0,-175)">
        <path d="M 88.989183 1.843434 L 290.010817 1.843434 C 338.057692 1.843434 377.000000 39.884300 377.000000 87.931175 C 377.000000 135.978049 338.057681 174.920357 290.010817 174.920357 L 88.989183 174.920357 C 40.942305 174.920357 2.000000 135.978052 2.000000 87.931175 C 2.000000 39.884297 40.942305 1.843434 88.989183 1.843434 Z M 290.461538 146.074204 C 322.282451 146.074204 348.153846 120.202809 348.153846 88.381896 C 348.153846 56.560983 322.282451 30.689588 290.461538 30.689588 C 258.640626 30.689588 232.769231 56.560983 232.769231 88.381896 C 232.769231 120.202809 258.640626 146.074204 290.461538 146.074204 Z" transform="scale(1.000000,1.000000) translate(-2.000000,-1.000000)" opacity="1.000000"></path>
    </g>
</svg>